<svg fill="#3A5344" xmlns="http://www.w3.org/2000/svg" xmlns:xlink="http://www.w3.org/1999/xlink" version="1.1" x="0px" y="0px" viewBox="0 0 100 100" enable-background="new 0 0 100 100" xml:space="preserve"><path fill="#3A5344" d="M71.911,23.416c0,0,0.672-4.744,4.994-6.566c1.538-0.648,2.525-1.483,2.449-2.409  c2.258,2.015,2.052,7.232-1.011,9.171c-3.062,1.939-6.751,2.185-6.751,2.185s2.903-4.583,4.548-5.978  C74.023,20.472,71.911,23.416,71.911,23.416z"></path><path fill="#3A5344" d="M79.296,34.234c0,0,0.874-3.732,6.003-4.637c1.823-0.322,3.004-0.866,2.929-1.621  c2.628,1.917,2.296,6.092-1.35,7.254s-7.999,0.88-7.999,0.88s3.503-3.313,5.466-4.222C81.837,32.138,79.296,34.234,79.296,34.234z"></path><path fill="#3A5344" d="M76.971,69.301c0,0,4.71-3.895,9.533-2.786c1.715,0.396,3.188,0.267,3.954-0.626  c-0.114,3.286-4.901,7.913-8.893,7.718c-3.994-0.196-6.946-2.337-6.946-2.337s6.222-2.319,8.68-2.538  C81.148,67.97,76.971,69.301,76.971,69.301z"></path><path fill="#3A5344" d="M44.925,14.948c0,0,0.474-3.619,3.661-5.049c1.133-0.508,1.859-1.153,1.799-1.857  c1.679,1.513,1.553,5.49-0.702,6.996c-2.256,1.506-4.981,1.729-4.981,1.729s2.124-3.519,3.333-4.598  C46.472,12.687,44.925,14.948,44.925,14.948z"></path><path fill="#3A5344" d="M18.284,66.13c0,0-3.09,1.294-5.758-0.701c-0.948-0.709-1.809-1.016-2.337-0.636  c0.387-2.11,3.592-3.861,5.872-2.679c2.278,1.18,3.768,3.354,3.768,3.354s-3.807-0.131-5.243-0.638  C15.75,65.894,18.284,66.13,18.284,66.13z"></path><path fill="#3A5344" d="M21.981,27.456c0,0-3.202-4.66-1.794-9.005c0.5-1.544,0.501-2.911-0.259-3.691  c3.011,0.381,6.88,5.174,6.38,8.831s-2.706,6.194-2.706,6.194s-1.632-5.92-1.635-8.2C21.094,23.499,21.981,27.456,21.981,27.456z"></path><path fill="#3A5344" d="M21.545,30.942c0,0-1.734-5.335-6.306-6.507c-1.625-0.417-2.866-0.122-3.311-1.433  c-1.737,2.562-0.242,7.108,3.113,8.603c3.355,1.494,7.021,1.15,7.021,1.15s-3.519-4.149-5.935-4.883  C18.569,27.827,21.545,30.942,21.545,30.942z"></path><path fill="#3A5344" d="M15.263,45.904c0,0-4.628-0.996-7.341,1.57c-0.963,0.913-1.25,1.855-2.395,1.624  c1.182,2.185,5.133,3.021,7.591,1.394c2.457-1.628,3.69-4.201,3.69-4.201s-4.479,0.668-5.998,1.979  C11.767,46.628,15.263,45.904,15.263,45.904z"></path><path fill="#3A5344" d="M84.361,53.244c0,0,4.697-0.823,6.155-5.28c0.519-1.583,0.396-2.901,1.551-3.125  c-1.993-2.224-5.996-1.501-7.604,1.655c-1.609,3.158-1.692,6.959-1.692,6.959s3.873-2.857,4.742-5.192  C87.304,50.761,84.361,53.244,84.361,53.244z"></path><path fill="#3A5344" d="M69.796,21.646c0,0,1.984-4.708-0.559-8.288c-0.904-1.272-1.966-1.824-1.491-2.993  c-2.779,0.701-4.459,4.724-2.975,7.786c1.483,3.062,4.299,5.053,4.299,5.053s-0.001-4.98-1.277-6.95  C69.559,17.704,69.796,21.646,69.796,21.646z"></path><path fill="#3A5344" d="M29.822,77.423c0,0-4.542-1.425-7.466,0.815c-1.039,0.797-1.402,1.69-2.527,1.353  c1,2.25,4.879,3.452,7.47,2.103c2.591-1.35,4.035-3.743,4.035-3.743s-4.53,0.215-6.155,1.348  C26.268,77.787,29.822,77.423,29.822,77.423z"></path><path fill="#3A5344" d="M37.729,18.174c0,0-1.89-3.657-5.547-3.873c-1.301-0.077-2.23,0.313-2.71-0.583  c-1.081,2.117,0.545,5.23,3.294,5.852c2.75,0.623,5.551-0.142,5.551-0.142s-3.15-2.541-5.096-2.737  C35.107,16.314,37.729,18.174,37.729,18.174z"></path><path fill="#3A5344" d="M72.639,75.872c0,0,1.737,3.86,5.56,4.26c1.358,0.142,2.359-0.216,2.803,0.73  c1.275-2.129-0.218-5.417-3.061-6.19c-2.842-0.773-5.832-0.12-5.832-0.12s3.133,2.77,5.16,3.067  C75.266,77.915,72.639,75.872,72.639,75.872z"></path><path fill="#3A5344" d="M82.641,57.677c0,0,3.577,1.647,6.464-0.339c1.026-0.707,2.168-2.184,2.168-2.184s-3.269-2.594-5.709-1.446  c-2.44,1.145-4.103,3.368-4.103,3.368l5.453-0.93L82.641,57.677z"></path><path fill="#3A5344" d="M11.949,39.214l4.859,4.886c0,0-0.08-3.457-1.725-6.385c-1.646-2.928-6.84-2.661-6.84-2.661  s0.092,2.324,0.622,3.783c1.491,4.103,6.312,5.019,6.312,5.019L11.949,39.214z"></path><path fill="#3A5344" d="M41.132,10.509l0.854,6.838c0,0,2.052-2.783,2.542-6.105s-3.782-6.29-3.782-6.29s-1.349,1.895-1.823,3.373  c-1.331,4.157,1.921,7.832,1.921,7.832L41.132,10.509z"></path><path fill="#3A5344" d="M25.377,73.174c0,0-2.774-4.046-7.13-3.766c-1.548,0.101-3.713,0.95-3.713,0.95s1.84,4.863,5.183,5.195  c3.342,0.333,6.54-0.982,6.54-0.982l-6.427-2.49L25.377,73.174z"></path><path fill="#3A5344" d="M40.964,83.009c0,0-4.217,1.196-5.41,4.067c-0.424,1.021-0.275,1.786-1.312,2.094  c1.862,1.024,5.457-0.007,6.819-2.128c1.364-2.121,1.332-4.396,1.332-4.396s-3.417,2.281-4.135,3.803  C38.377,84.93,40.964,83.009,40.964,83.009z"></path><path fill="#3A5344" d="M68.573,83.104l-3.604-3.485c0,0,0.027,2.573,1.237,4.702s5.112,1.764,5.112,1.764s-0.049-1.729-0.433-2.799  c-1.082-3.01-4.694-3.536-4.694-3.536L68.573,83.104z"></path><path fill="#3A5344" d="M56.441,12.914l-2.024,4.588c0,0,2.405-0.916,3.984-2.788c1.579-1.871-0.112-5.407-0.112-5.407  s-1.605,0.644-2.477,1.374c-2.45,2.056-1.695,5.627-1.695,5.627L56.441,12.914z"></path><path fill-rule="evenodd" clip-rule="evenodd" d="M65.896,62.756c1.874-0.958,8.647-1.231,10.377-5.442  c-2.273,2.326-5.738,2.612-8.061,2.753c2.277-3.054,3.796-6.888,2.319-12.356c-0.425,12.482-11.088,14.504-13.983,19.559  c-0.871-1.834-0.438-9.241-2.246-17.29c0.779-2.79,3.99-8.881,1.844-12.854c0.474,3.646-1.41,7.188-2.717,9.531  c-1.284-4.196-3.296-8.385-6.523-11.888c3.08,10.035,2.624,34.274,2.807,35.896c-4.819-6.336-17.07-7.555-18.867-18.063  c-1.822,7.574,6.181,13.779,8.42,14.169c-1.704,0.194-6.479,2.406-10.385,0.415c3.213,3.699,10.511,1.205,11.975,1.95  C47.49,72.51,48.125,88.936,45.97,95c4.447,0,15.208,0,15.208,0s-4.705-18.479-0.235-26.64C61.942,66.537,63.937,64.8,65.896,62.756  z"></path></svg>